<svg xmlns="http://www.w3.org/2000/svg" width="28" height="28"><circle cx="14" cy="14" r="14" fill="#ef4c45" fill-rule="evenodd"/><path fill="#fff" d="M11.318 7.506a.819.819 0 0 0-.818.818v5.127c0 .581.474 1.055 1.055 1.055h4.89c.581 0 1.055-.474 1.055-1.055V8.324a.819.819 0 0 0-.818-.818h-5.364zm.237 1 4.945.055v.945h-4.957l.012-1zm-.024 2H16.5v1h-4.979l.01-1zm-.021 2h4.99v.945l-.055.055-4.945-.055.01-.945Zm1.988 3.012v3.632c0 .19-.154.346-.344.346H9.5v.998h3.654c.325 0 .613-.13.846-.322.233.193.52.322.846.322H18.5v-1h-3.656a.345.345 0 0 1-.346-.344v-3.632h-1z"/></svg>