<svg xmlns="http://www.w3.org/2000/svg" width="28" height="28"><circle cx="14" cy="14" r="14" fill="#50b748" fill-rule="evenodd"/><path fill="#fff" d="M6.818 7A.82.82 0 0 0 6 7.818v5.127C6 13.526 6.474 14 7.055 14h4.892c.58 0 1.053-.474 1.053-1.055V7.818A.82.82 0 0 0 12.182 7H6.818ZM7 8h5v1H7V8Zm7 0v1h3.654c.191 0 .346.155.346.346V14h-1.654c-.741 0-1.346.605-1.346 1.346v3.31c0 .74.605 1.344 1.346 1.344h4.31c.74 0 1.344-.605 1.344-1.346v-3.308c0-.741-.605-1.346-1.346-1.346H19V9.346C19 8.605 18.395 8 17.654 8H14Zm-7 2h5v1H7v-1zm0 2h5v1H7v-1zm9.346 3h4.31c.19 0 .344.155.344.346v3.31c0 .19-.155.344-.346.344h-4.31a.345.345 0 0 1-.344-.346v-3.308c0-.191.155-.346.346-.346Zm1.656 5.168V21h-1.533v1h4.01v-1h-1.477v-.832h-1z"/></svg>