<svg xmlns="http://www.w3.org/2000/svg" width="28" height="28"><circle cx="14" cy="14" r="14" fill="#239fdb" fill-rule="evenodd"/><path fill="#fff" d="M6.818 7A.819.819 0 0 0 6 7.818v5.127C6 13.526 6.474 14 7.055 14h4.89c.581 0 1.055-.474 1.055-1.055V7.818A.819.819 0 0 0 12.182 7H6.818Zm.237 1L12 8.055V9H7.043l.012-1ZM14 9v1h3.654c.191 0 .346.155.346.346v3.634h1v-3.634C19 9.605 18.395 9 17.654 9H14Zm-6.969 1H12v1H7.021l.01-1zm-.021 2H12v.945l-.055.055L7 12.945 7.01 12Zm8.808 3a.82.82 0 0 0-.818.818v5.127c0 .581.474 1.055 1.055 1.055h4.892c.58 0 1.053-.474 1.053-1.055v-5.127a.82.82 0 0 0-.818-.818H15.818zM9 15.021v3.635c0 .74.604 1.344 1.346 1.344H14v-1h-3.654a.346.346 0 0 1-.346-.346v-3.633H9zm7.055.979 4.945.055V17h-4.957l.012-1zm-.024 2H21v1h-4.979l.01-1zm-.021 2H21v.945l-.055.055L16 20.945l.01-.945z"/></svg>