<svg width="1920" height="1080" viewBox="0 0 1920 1080" xmlns="http://www.w3.org/2000/svg"><path d="M 0,1080 C 0,1080 0,135 0,135 C 59.94724895139403,141.76515971075557 119.89449790278806,148.53031942151114 179,155 C 238.10550209721194,161.46968057848886 296.3692573402418,167.64388202471102 346,169 C 395.6307426597582,170.35611797528898 436.6284727362448,166.8941524796447 501,154 C 565.3715272637552,141.1058475203553 653.116851714779,118.77950805671013 712,106 C 770.883148285221,93.22049194328987 800.9041204046387,89.98781529351479 856,95 C 911.0958795953613,100.01218470648521 991.2666666666667,113.26923076923075 1053,121 C 1114.7333333333333,128.73076923076925 1158.0292129286947,130.93526162956215 1221,134 C 1283.9707870713053,137.06473837043785 1366.6164816185542,140.98972271252063 1420,148 C 1473.3835183814458,155.01027728747937 1497.5048605970887,165.10584752035527 1549,158 C 1600.4951394029113,150.89415247964473 1679.3640759930918,126.58688720605822 1746,122 C 1812.6359240069082,117.41311279394178 1867.0388354305453,132.54660365541193 1894,138 C 1920.9611645694547,143.45339634458807 1920.4805822847275,139.22669817229405 1920,135 C 1920,135 1920,1080 1920,1080 Z" fill="#4d818f" opacity="0.075"/><path d="M 0,1080 C 0,1080 0,270 0,270 C 66.4140636565507,246.66537892159653 132.8281273131014,223.33075784319308 197,231 C 261.1718726868986,238.66924215680692 323.1015544041451,277.34234754882425 374,279 C 424.8984455958549,280.65765245117575 464.7656550703183,245.29985196151003 509,243 C 553.2343449296817,240.70014803848997 601.8358253145816,271.45824460513575 673,267 C 744.1641746854184,262.54175539486425 837.8910436713547,222.86716961794681 892,223 C 946.1089563286453,223.13283038205319 960.5999999999999,263.07307692307694 1016,274 C 1071.4,284.92692307692306 1167.7089563286456,266.8405226897455 1232,274 C 1296.2910436713544,281.1594773102545 1328.5641746854183,313.5648323179411 1392,303 C 1455.4358253145817,292.4351676820589 1550.034344929682,238.90014803849 1602,236 C 1653.965655070318,233.09985196151 1663.2984455958544,280.83457552809887 1726,303 C 1788.7015544041456,325.16542447190113 1904.7718726868989,321.7615498491146 1946,312 C 1987.2281273131011,302.2384501508854 1953.6140636565506,286.1192250754427 1920,270 C 1920,270 1920,1080 1920,1080 Z" fill="#4d818f" opacity="0.15"/><path d="M 0,1080 C 0,1080 0,405 0,405 C 54.56760614169943,403.43255802919015 109.13521228339886,401.8651160583803 174,402 C 238.86478771660114,402.1348839416197 314.026757008104,403.97209379566897 371,395 C 427.973242991896,386.02790620433103 466.75775968418463,366.24650875894395 510,371 C 553.2422403158154,375.75349124105605 600.9422042551577,405.04187116855513 669,422 C 737.0577957448423,438.95812883144487 825.473423295185,443.58600656683564 891,431 C 956.526576704815,418.41399343316436 999.1641025641024,388.6141025641025 1053,373 C 1106.8358974358976,357.3858974358975 1171.870166448405,355.9575831767542 1238,360 C 1304.129833551595,364.0424168232458 1371.355231642278,373.55556472888077 1428,386 C 1484.644768357722,398.44443527111923 1530.7089069824824,413.82015790772266 1587,431 C 1643.2910930175176,448.17984209227734 1709.809140427793,467.16380364022854 1775,451 C 1840.190859572207,434.83619635977146 1904.054531306345,383.52462753136325 1928,370 C 1951.945468693655,356.47537246863675 1935.9727343468276,380.7376862343184 1920,405 C 1920,405 1920,1080 1920,1080 Z" fill="#4d818f" opacity="0.22499999999999998"/><path d="M 0,1080 C 0,1080 0,540 0,540 C 59.67837214598873,538.4677513332954 119.35674429197746,536.9355026665908 178,551 C 236.64325570802254,565.0644973334092 294.2513949780789,594.7257406669323 350,585 C 405.7486050219211,575.2742593330677 459.63767579570697,526.1615346656797 518,523 C 576.362324204293,519.8384653343203 639.1979018390936,562.6281206703487 704,561 C 768.8020981609064,559.3718793296513 835.5707168479191,513.3259826529256 901,492 C 966.4292831520809,470.6740173470744 1030.5192307692307,474.0679487179488 1076,490 C 1121.4807692307693,505.9320512820512 1148.352360075158,534.4022224752795 1198,530 C 1247.647639924842,525.5977775247205 1320.0713289301373,488.3231613809334 1381,499 C 1441.9286710698627,509.6768386190666 1491.362324204293,568.3051320009869 1544,567 C 1596.637675795707,565.6948679990131 1652.4793742526904,504.4563106151189 1731,504 C 1809.5206257473096,503.5436893848811 1910.7201787849456,563.8696255385374 1946,580 C 1981.2798212150544,596.1303744614626 1950.6399106075273,568.0651872307312 1920,540 C 1920,540 1920,1080 1920,1080 Z" fill="#4d818f" opacity="0.3"/><path d="M 0,1080 C 0,1080 0,675 0,675 C 74.65770844009185,678.1378304769496 149.3154168801837,681.2756609538993 203,665 C 256.6845831198163,648.7243390461007 289.396040919357,613.0351866613524 332,629 C 374.603959080643,644.9648133386476 427.10041944238833,712.5835924006909 501,723 C 574.8995805576117,733.4164075993091 670.2022813110896,686.6304437358841 729,669 C 787.7977186889104,651.3695562641159 810.0904553132533,662.8946326557726 860,668 C 909.9095446867467,673.1053673442274 987.4358974358975,671.7910256410255 1045,686 C 1102.5641025641025,700.2089743589745 1140.165954943157,729.9412647801249 1195,720 C 1249.834045056843,710.0587352198751 1321.9002827914744,660.4439152384748 1380,654 C 1438.0997172085256,647.5560847615252 1482.232913890945,684.2830742659759 1549,689 C 1615.767086109055,693.7169257340241 1705.1680616447456,666.4237876976218 1777,651 C 1848.8319383552544,635.5762123023782 1903.0948395300727,632.0217749435366 1924,638 C 1944.9051604699273,643.9782250564634 1932.4525802349635,659.4891125282318 1920,675 C 1920,675 1920,1080 1920,1080 Z" fill="#4d818f" opacity="0.375"/><path d="M 0,1080 C 0,1080 0,810 0,810 C 71.17852398033747,785.2413720131336 142.35704796067495,760.4827440262673 205,760 C 267.64295203932505,759.5172559737327 321.7503321376378,783.3103959080643 368,807 C 414.2496678623622,830.6896040919357 452.6416234887738,854.2756723414755 505,845 C 557.3583765112262,835.7243276585245 623.6831739072671,793.5869147260339 682,782 C 740.3168260927329,770.4130852739661 790.6256808821574,789.376668754389 860,814 C 929.3743191178426,838.623331245611 1017.8141025641023,868.9064102564103 1069,855 C 1120.1858974358977,841.0935897435897 1134.1179088614324,782.9976902199699 1194,766 C 1253.8820911385676,749.0023097800301 1359.7142619901686,773.1028288637096 1428,775 C 1496.2857380098314,776.8971711362904 1527.025043177893,756.5909943251912 1576,762 C 1624.974956822107,767.4090056748088 1692.1855652982597,798.5331938355254 1762,818 C 1831.8144347017403,837.4668061644746 1904.2326956290688,845.276230332707 1931,842 C 1957.7673043709312,838.723769667293 1938.8836521854655,824.3618848336465 1920,810 C 1920,810 1920,1080 1920,1080 Z" fill="#4d818f" opacity="0.44999999999999996"/><path d="M 0,1080 C 0,1080 0,945 0,945 C 75.16585719979503,946.9405815255557 150.33171439959006,948.8811630511112 204,946 C 257.66828560040994,943.1188369488888 289.83899960143486,935.4159293211105 336,944 C 382.16100039856514,952.5840706788895 442.3122871946706,977.4551196644461 501,970 C 559.6877128053294,962.5448803355539 616.9118516198828,922.7635920211051 679,907 C 741.0881483801172,891.2364079788949 808.0403063257985,899.490512251134 876,903 C 943.9596936742015,906.509487748866 1012.9269230769232,905.274358974359 1076,911 C 1139.0730769230768,916.725641025641 1196.2520013665091,929.41205185143 1250,934 C 1303.7479986334909,938.58794814857 1354.0650714570404,935.0774336199207 1411,941 C 1467.9349285429596,946.9225663800793 1531.4877128053295,962.2782136688872 1582,964 C 1632.5122871946705,965.7217863311128 1669.984077321642,953.8097117045303 1741,947 C 1812.015922678358,940.1902882954697 1916.5759779081022,938.4829395129914 1952,939 C 1987.4240220918978,939.5170604870086 1953.7120110459489,942.2585302435043 1920,945 C 1920,945 1920,1080 1920,1080 Z" fill="#4d818f" opacity="0.525"/></svg>