<svg width="1920" height="1080" viewBox="0 0 1920 1080" xmlns="http://www.w3.org/2000/svg"><path d="M 0,1080 C 0,1080 0,135 0,135 C 238.66666666666669,108.73333333333333 477.33333333333337,82.46666666666667 681,85 C 884.6666666666666,87.53333333333333 1053.3333333333333,118.86666666666667 1254,132 C 1454.6666666666667,145.13333333333333 1687.3333333333335,140.06666666666666 1920,135 C 1920,135 1920,1080 1920,1080 Z" fill="#ffffff" opacity="0.075"/><path d="M 0,1080 C 0,1080 0,270 0,270 C 214.2666666666667,290.5333333333333 428.5333333333334,311.06666666666666 669,317 C 909.4666666666666,322.93333333333334 1176.1333333333332,314.2666666666667 1389,304 C 1601.8666666666668,293.7333333333333 1760.9333333333334,281.8666666666667 1920,270 C 1920,270 1920,1080 1920,1080 Z" fill="#ffffff" opacity="0.15"/><path d="M 0,1080 C 0,1080 0,405 0,405 C 208.13333333333333,414.3333333333333 416.26666666666665,423.66666666666663 625,414 C 833.7333333333333,404.33333333333337 1043.0666666666666,375.6666666666667 1259,371 C 1474.9333333333334,366.3333333333333 1697.4666666666667,385.66666666666663 1920,405 C 1920,405 1920,1080 1920,1080 Z" fill="#ffffff" opacity="0.22499999999999998"/><path d="M 0,1080 C 0,1080 0,540 0,540 C 152.80000000000007,512.9333333333334 305.60000000000014,485.8666666666667 520,493 C 734.3999999999999,500.1333333333333 1010.3999999999999,541.4666666666667 1254,555 C 1497.6000000000001,568.5333333333333 1708.8000000000002,554.2666666666667 1920,540 C 1920,540 1920,1080 1920,1080 Z" fill="#ffffff" opacity="0.3"/><path d="M 0,1080 C 0,1080 0,675 0,675 C 278.93333333333334,653.6666666666666 557.8666666666667,632.3333333333333 756,626 C 954.1333333333333,619.6666666666667 1071.4666666666667,628.3333333333334 1252,639 C 1432.5333333333333,649.6666666666666 1676.2666666666667,662.3333333333333 1920,675 C 1920,675 1920,1080 1920,1080 Z" fill="#ffffff" opacity="0.375"/><path d="M 0,1080 C 0,1080 0,810 0,810 C 145.86666666666667,831.7333333333333 291.73333333333335,853.4666666666666 524,856 C 756.2666666666667,858.5333333333334 1074.9333333333334,841.8666666666668 1322,831 C 1569.0666666666666,820.1333333333332 1744.5333333333333,815.0666666666666 1920,810 C 1920,810 1920,1080 1920,1080 Z" fill="#ffffff" opacity="0.44999999999999996"/><path d="M 0,1080 C 0,1080 0,945 0,945 C 198.80000000000007,948.1999999999999 397.60000000000014,951.3999999999999 590,963 C 782.3999999999999,974.6000000000001 968.3999999999999,994.6000000000001 1189,993 C 1409.6000000000001,991.3999999999999 1664.8000000000002,968.1999999999999 1920,945 C 1920,945 1920,1080 1920,1080 Z" fill="#ffffff" opacity="0.525"/></svg>