<svg width="1920" height="1080" viewBox="0 0 1920 1080" xmlns="http://www.w3.org/2000/svg"><path d="M 0,1080 C 0,1080 0,135 0,135 C 196.40000000000003,145.13333333333333 392.80000000000007,155.26666666666665 608,165 C 823.1999999999999,174.73333333333335 1057.2,184.0666666666667 1279,179 C 1500.8,173.9333333333333 1710.4,154.46666666666664 1920,135 C 1920,135 1920,1080 1920,1080 Z" fill="#0a192f" opacity="0.075"/><path d="M 0,1080 C 0,1080 0,270 0,270 C 244.40000000000003,252.66666666666669 488.80000000000007,235.33333333333337 692,247 C 895.1999999999999,258.66666666666663 1057.1999999999998,299.3333333333333 1255,308 C 1452.8000000000002,316.6666666666667 1686.4,293.33333333333337 1920,270 C 1920,270 1920,1080 1920,1080 Z" fill="#0a192f" opacity="0.15"/><path d="M 0,1080 C 0,1080 0,405 0,405 C 209.46666666666664,375.5333333333333 418.9333333333333,346.06666666666666 611,356 C 803.0666666666667,365.93333333333334 977.7333333333333,415.2666666666667 1193,430 C 1408.2666666666667,444.7333333333333 1664.1333333333332,424.8666666666667 1920,405 C 1920,405 1920,1080 1920,1080 Z" fill="#0a192f" opacity="0.22499999999999998"/><path d="M 0,1080 C 0,1080 0,540 0,540 C 242.2666666666667,557.3333333333333 484.5333333333334,574.6666666666666 686,571 C 887.4666666666666,567.3333333333334 1048.1333333333334,542.6666666666667 1247,534 C 1445.8666666666666,525.3333333333333 1682.9333333333334,532.6666666666666 1920,540 C 1920,540 1920,1080 1920,1080 Z" fill="#0a192f" opacity="0.3"/><path d="M 0,1080 C 0,1080 0,675 0,675 C 250.93333333333334,647 501.8666666666667,619 726,631 C 950.1333333333333,643 1147.4666666666667,695 1342,709 C 1536.5333333333333,723 1728.2666666666667,699 1920,675 C 1920,675 1920,1080 1920,1080 Z" fill="#0a192f" opacity="0.375"/><path d="M 0,1080 C 0,1080 0,810 0,810 C 219.59999999999997,835.0666666666666 439.19999999999993,860.1333333333333 666,859 C 892.8000000000001,857.8666666666667 1126.8000000000002,830.5333333333334 1337,818 C 1547.1999999999998,805.4666666666666 1733.6,807.7333333333333 1920,810 C 1920,810 1920,1080 1920,1080 Z" fill="#0a192f" opacity="0.44999999999999996"/><path d="M 0,1080 C 0,1080 0,945 0,945 C 186,955.2666666666667 372,965.5333333333334 587,971 C 802,976.4666666666666 1046,977.1333333333332 1273,972 C 1500,966.8666666666668 1710,955.9333333333334 1920,945 C 1920,945 1920,1080 1920,1080 Z" fill="#0a192f" opacity="0.525"/></svg>