<?xml version="1.0" encoding="utf-8"?><svg xmlns="http://www.w3.org/2000/svg" xmlns:xlink="http://www.w3.org/1999/xlink" width="1227" height="324" preserveAspectRatio="xMidYMid" viewBox="0 0 1227 324" style="z-index:1;display:block;animation-play-state:paused" ><g transform="translate(613.5,162) scale(1,1) translate(-613.5,-162)" style="animation-play-state:paused" ><linearGradient id="lg-0.7728933994327234" x1="0" x2="1" y1="0" y2="0" style="animation-play-state:paused" ><stop stop-color="#0a192f" offset="0" style="animation-play-state:paused" ></stop>

  
<stop stop-color="#979797" offset="1" style="animation-play-state:paused" ></stop></linearGradient>
<path d="M 0 0 L 0 273.519 Q 122.7 264.171 245.4 244.244 T 490.8 229.293 T 736.2 198.121 T 981.6 189.542 T 1227 149.097 L 1227 0 Z" fill="url(#lg-0.7728933994327234)" opacity="0.4" style="opacity:0.4;animation-play-state:paused" ></path>
<path d="M 0 0 L 0 295.607 Q 122.7 284.353 245.4 246.149 T 490.8 246.335 T 736.2 226.598 T 981.6 169.087 T 1227 154.228 L 1227 0 Z" fill="url(#lg-0.7728933994327234)" opacity="0.4" style="opacity:0.4;animation-play-state:paused" ></path>
<path d="M 0 0 L 0 300.685 Q 122.7 288.095 245.4 268.18 T 490.8 211.681 T 736.2 224.326 T 981.6 165.374 T 1227 181.648 L 1227 0 Z" fill="url(#lg-0.7728933994327234)" opacity="0.4" style="opacity:0.4;animation-play-state:paused" ></path>
<path d="M 0 0 L 0 281.533 Q 122.7 306.731 245.4 281.725 T 490.8 213.598 T 736.2 184.841 T 981.6 171.022 T 1227 155.998 L 1227 0 Z" fill="url(#lg-0.7728933994327234)" opacity="0.4" style="opacity:0.4;animation-play-state:paused" ></path>
<path d="M 0 0 L 0 299.704 Q 122.7 309.879 245.4 289.528 T 490.8 238.787 T 736.2 207.878 T 981.6 206.236 T 1227 137.17 L 1227 0 Z" fill="url(#lg-0.7728933994327234)" opacity="0.4" style="opacity:0.4;animation-play-state:paused" ></path>
<path d="M 0 0 L 0 274.013 Q 122.7 292.975 245.4 249.709 T 490.8 238.981 T 736.2 199.071 T 981.6 199.248 T 1227 153.756 L 1227 0 Z" fill="url(#lg-0.7728933994327234)" opacity="0.4" style="opacity:0.4;animation-play-state:paused" ></path>
<path d="M 0 0 L 0 302.633 Q 122.7 306.648 245.4 273.727 T 490.8 224.047 T 736.2 201.078 T 981.6 163.495 T 1227 152.293 L 1227 0 Z" fill="url(#lg-0.7728933994327234)" opacity="0.4" style="opacity:0.4;animation-play-state:paused" ></path></g></svg>