<?xml version="1.0" encoding="utf-8"?><svg xmlns="http://www.w3.org/2000/svg" xmlns:xlink="http://www.w3.org/1999/xlink" width="1036" height="125" preserveAspectRatio="xMidYMid" viewBox="0 0 1036 125" style="z-index:1;display:block;animation-play-state:paused" ><g transform="translate(518,62.5) scale(1,1) translate(-518,-62.5)" style="animation-play-state:paused" ><linearGradient id="lg-0.5456433631272052" x1="0" x2="1" y1="0" y2="0" style="animation-play-state:paused" ><stop stop-color="#0a192f" offset="0" style="animation-play-state:paused" ></stop>

  
<stop stop-color="#979797" offset="1" style="animation-play-state:paused" ></stop></linearGradient>
<path d="M 0 0 L 0 82.502 Q 86.3333 109.507 172.667 70.6182 T 345.333 59.4028 T 518 55.1161 T 690.667 58.7832 T 863.333 81.5622 T 1036 32.2306 L 1036 0 Z" fill="url(#lg-0.5456433631272052)" opacity="0.4" style="opacity:0.4;animation-play-state:paused" ></path>
<path d="M 0 0 L 0 90.9122 Q 86.3333 100.313 172.667 78.8434 T 345.333 81.5116 T 518 71.5545 T 690.667 76.4146 T 863.333 45.434 T 1036 58.9147 L 1036 0 Z" fill="url(#lg-0.5456433631272052)" opacity="0.4" style="opacity:0.4;animation-play-state:paused" ></path>
<path d="M 0 0 L 0 106.779 Q 86.3333 119.471 172.667 94.3032 T 345.333 85.1355 T 518 87.6168 T 690.667 64.8614 T 863.333 79.6731 T 1036 67.1346 L 1036 0 Z" fill="url(#lg-0.5456433631272052)" opacity="0.4" style="opacity:0.4;animation-play-state:paused" ></path>
<path d="M 0 0 L 0 118.753 Q 86.3333 137.893 172.667 99.8914 T 345.333 80.0732 T 518 68.3054 T 690.667 86.1363 T 863.333 58.6322 T 1036 53.6545 L 1036 0 Z" fill="url(#lg-0.5456433631272052)" opacity="0.4" style="opacity:0.4;animation-play-state:paused" ></path>
<path d="M 0 0 L 0 89.6667 Q 86.3333 128.709 172.667 104.895 T 345.333 104.886 T 518 96.4716 T 690.667 56.7798 T 863.333 61.4623 T 1036 69.0764 L 1036 0 Z" fill="url(#lg-0.5456433631272052)" opacity="0.4" style="opacity:0.4;animation-play-state:paused" ></path>
<path d="M 0 0 L 0 116.716 Q 86.3333 104.098 172.667 62.155 T 345.333 79.0285 T 518 66.11 T 690.667 62.3597 T 863.333 41.5933 T 1036 48.4179 L 1036 0 Z" fill="url(#lg-0.5456433631272052)" opacity="0.4" style="opacity:0.4;animation-play-state:paused" ></path>
<path d="M 0 0 L 0 73.8967 Q 86.3333 131.163 172.667 97.7759 T 345.333 92.7976 T 518 83.5765 T 690.667 69.0493 T 863.333 66.022 T 1036 67.0847 L 1036 0 Z" fill="url(#lg-0.5456433631272052)" opacity="0.4" style="opacity:0.4;animation-play-state:paused" ></path></g></svg>